<svg width="210" height="60" viewBox="0 0 210 60" fill="none" xmlns="http://www.w3.org/2000/svg">
<g clip-path="url(#clip0_24_871)">
<path d="M209.183 53.8893C209.184 54.6744 209.029 55.4519 208.728 56.1767C208.426 56.9015 207.983 57.5592 207.426 58.1116C206.868 58.664 206.206 59.1002 205.478 59.3948C204.75 59.6894 203.971 59.8366 203.186 59.8279H6.16506C5.39167 59.8423 4.62332 59.7004 3.90604 59.4109C3.18876 59.1213 2.53732 58.6899 1.99072 58.1426C1.44413 57.5953 1.01363 56.9433 0.725016 56.2256C0.436405 55.508 0.295617 54.7395 0.311086 53.9661V6.00162C0.296654 5.22942 0.43829 4.46225 0.727506 3.7461C1.01672 3.02995 1.44756 2.37957 1.9942 1.83394C2.54084 1.2883 3.19202 0.858658 3.90872 0.57075C4.62541 0.282842 5.39286 0.142601 6.16506 0.158432H203.186C206.512 0.158432 209.154 2.68651 209.154 6.00957V53.9741L209.183 53.8893Z" fill="#161A1D"/>
<mask id="mask0_24_871" style="mask-type:luminance" maskUnits="userSpaceOnUse" x="23" y="12" width="21" height="40">
<path d="M23.2607 13.1168V50.439C23.2381 50.6187 23.2754 50.8008 23.367 50.957C23.4585 51.1132 23.5991 51.2349 23.7669 51.3029L43.6423 31.603L23.9312 12.0542C23.5363 12.1655 23.2607 12.5232 23.2607 13.1142" fill="white"/>
</mask>
<g mask="url(#mask0_24_871)">
<path d="M43.6371 12.0542H23.2609V51.295H43.6371V12.0542Z" fill="#4285F4"/>
</g>
<mask id="mask1_24_871" style="mask-type:luminance" maskUnits="userSpaceOnUse" x="23" y="12" width="27" height="20">
<path d="M23.9313 12.0542L43.6371 31.5924L49.1095 26.1653L40.8943 21.4165L40.8519 21.3927H40.8307H40.8121H40.7909L24.9727 12.2291C24.7419 12.096 24.4812 12.0231 24.2148 12.0171C24.1191 12.0172 24.0238 12.0296 23.9313 12.0542Z" fill="white"/>
</mask>
<g mask="url(#mask1_24_871)">
<path d="M49.1095 12.0171H23.9313V31.5924H49.1095V12.0171Z" fill="#34A853"/>
</g>
<mask id="mask2_24_871" style="mask-type:luminance" maskUnits="userSpaceOnUse" x="23" y="31" width="27" height="21">
<path d="M23.767 51.3032C23.9101 51.3418 24.0598 51.35 24.2064 51.3272C24.3529 51.3044 24.493 51.2511 24.6176 51.1707L26.9179 49.8457L40.8837 41.7633L44.9966 39.3783L49.1095 36.9933L43.6371 31.5688L23.767 51.3032Z" fill="white"/>
</mask>
<g mask="url(#mask2_24_871)">
<path d="M49.1095 31.5928H23.767V51.3722H49.1095V31.5928Z" fill="#EA4335"/>
</g>
<mask id="mask3_24_871" style="mask-type:luminance" maskUnits="userSpaceOnUse" x="43" y="26" width="15" height="12">
<path d="M43.6371 31.5927L49.1094 37.0172L55.1251 33.5457L57.0172 32.4539C57.9129 31.9239 57.8599 31.2323 57.1471 30.803L57.0967 30.7765L57.0729 30.7606C56.3415 30.3684 50.0211 26.6955 49.1996 26.2159L49.1094 26.1655L43.6371 31.5927Z" fill="white"/>
</mask>
<g mask="url(#mask3_24_871)">
<path d="M57.9129 26.1655H43.6371V37.0198H57.9129V26.1655Z" fill="#FBBC04"/>
</g>
<path d="M151.542 39.4898C150.821 39.499 150.107 39.3554 149.446 39.0684C148.81 38.7815 148.262 38.3318 147.856 37.7646H147.726C147.81 38.4114 147.854 39.0628 147.856 39.715V44.5512H146.064V27.5251H147.511L147.755 29.1337H147.843C148.243 28.5394 148.791 28.0591 149.433 27.7398C150.089 27.4431 150.803 27.2964 151.523 27.3105C153.082 27.3105 154.284 27.8405 155.13 28.9005C155.976 29.9605 156.4 31.4542 156.402 33.3816C156.402 35.3108 155.972 36.8124 155.112 37.8865C154.251 38.9607 153.055 39.4906 151.523 39.4765M151.258 28.8104C150.055 28.8104 149.187 29.1425 148.653 29.8068C148.12 30.471 147.844 31.531 147.827 32.9867V33.3816C147.827 35.0316 148.102 36.2135 148.653 36.9272C149.205 37.641 150.088 37.9943 151.303 37.9872C151.773 38.0024 152.239 37.8972 152.656 37.6815C153.074 37.4658 153.429 37.1468 153.689 36.755C154.263 35.9335 154.551 34.8002 154.552 33.3551C154.554 31.91 154.266 30.7864 153.689 29.9843C153.413 29.6025 153.047 29.2953 152.623 29.0903C152.199 28.8854 151.731 28.7892 151.261 28.8104" fill="#FBFBFB"/>
<path d="M160.539 22.5933H158.761V39.2775H160.539V22.5933Z" fill="#FBFBFB"/>
<path d="M170.773 39.2747L170.421 37.6026H170.334C169.879 38.2357 169.281 38.7532 168.59 39.113C167.897 39.3932 167.153 39.5259 166.406 39.5026C165.242 39.5026 164.329 39.2031 163.669 38.6043C163.008 38.0054 162.677 37.1512 162.675 36.0417C162.675 33.6674 164.573 32.4236 168.37 32.3106L170.363 32.2443V31.5156C170.363 30.5934 170.167 29.9256 169.769 29.4724C169.372 29.0193 168.736 28.8153 167.866 28.8153C166.886 28.8153 165.777 29.1147 164.541 29.7136L163.995 28.3542C164.597 28.0307 165.235 27.7815 165.897 27.6122C166.575 27.4365 167.272 27.3475 167.972 27.3472C169.374 27.3472 170.41 27.6572 171.089 28.28C171.767 28.9027 172.101 29.8991 172.101 31.2718V39.2906L170.773 39.2747ZM166.753 38.0213C167.861 38.0213 168.731 37.7174 169.364 37.1097C169.996 36.5019 170.312 35.6513 170.312 34.5577V33.4978L168.532 33.572C167.118 33.6214 166.098 33.8414 165.471 34.2318C165.164 34.4215 164.915 34.6908 164.75 35.011C164.585 35.3311 164.51 35.6901 164.533 36.0497C164.514 36.3234 164.557 36.5979 164.658 36.8528C164.76 37.1078 164.917 37.3368 165.118 37.5231C165.584 37.8844 166.165 38.0634 166.753 38.0266" fill="#FBFBFB"/>
<path d="M173.127 27.5249H175.035L177.6 34.2267C178.027 35.3059 178.381 36.4125 178.66 37.5391H178.745C178.838 37.1735 179.034 36.5507 179.328 35.6683C179.622 34.7858 180.595 32.0723 182.243 27.5249H184.151L179.1 40.9046C178.6 42.2278 178.015 43.1668 177.346 43.7215C176.652 44.2851 175.779 44.5796 174.886 44.551C174.345 44.5511 173.805 44.4897 173.278 44.3681V42.9424C173.713 43.034 174.158 43.0775 174.603 43.0723C175.825 43.0723 176.697 42.3859 177.218 41.0133L177.873 39.3411L173.127 27.5249Z" fill="#FBFBFB"/>
<path d="M118.57 28.6166C119.135 29.083 120.314 30.0661 120.314 31.9344C120.314 33.7523 119.283 34.6161 118.249 35.4244C117.929 35.745 117.563 36.0895 117.563 36.6301C117.563 37.1707 117.929 37.4649 118.202 37.6901L119.087 38.3765C120.168 39.2854 121.151 40.1228 121.151 41.8214C121.151 44.1322 118.915 46.4668 114.688 46.4668C111.123 46.4668 109.404 44.7708 109.404 42.9503C109.404 42.0652 109.843 40.8144 111.296 39.9505C112.817 39.0177 114.884 38.8905 115.989 38.8216C115.644 38.3791 115.252 37.9127 115.252 37.1522C115.259 36.8177 115.344 36.4894 115.499 36.1929C115.234 36.2167 114.955 36.2406 114.704 36.2406C112.101 36.2406 110.625 34.2981 110.625 32.3822C110.638 31.7527 110.785 31.1331 111.056 30.565C111.328 29.997 111.717 29.4935 112.199 29.0883C113.599 27.9329 115.271 27.7368 116.598 27.7368H121.66L120.094 28.6166H118.57ZM116.824 39.5292C116.636 39.5082 116.448 39.5003 116.259 39.5053C115.385 39.5218 114.517 39.6546 113.678 39.9002C113.148 40.0936 111.558 40.6952 111.558 42.4309C111.558 44.1666 113.254 45.4307 115.883 45.4307C118.241 45.4307 119.498 44.2965 119.498 42.7807C119.498 41.5246 118.687 40.8621 116.816 39.5345M117.531 34.8652C118.096 34.2981 118.143 33.5138 118.143 33.0712C118.143 31.301 117.083 28.5477 115.048 28.5477C114.72 28.5524 114.396 28.6272 114.099 28.7671C113.802 28.9069 113.538 29.1086 113.326 29.3586C112.946 29.8871 112.759 30.5296 112.796 31.1791C112.796 32.8248 113.755 35.5542 115.87 35.5542C116.493 35.5389 117.089 35.2935 117.542 34.8652" fill="#FBFBFB"/>
<path d="M103.096 39.1373C99.1955 39.1373 97.1099 36.0952 97.1099 33.3445C97.1099 30.1301 99.7334 27.3847 103.47 27.3847C104.239 27.3676 105.003 27.5052 105.717 27.7892C106.431 28.0732 107.081 28.4978 107.628 29.0379C108.176 29.578 108.608 30.2226 108.902 30.9332C109.195 31.6439 109.342 32.4062 109.335 33.1749C109.335 36.0687 107.103 39.1373 103.102 39.1373M106.168 37.1499C106.759 36.3549 106.907 35.3823 106.907 34.4257C106.907 32.266 105.876 28.1426 102.831 28.1426C102.02 28.1507 101.238 28.4465 100.624 28.9774C99.6672 29.8359 99.4949 30.9171 99.4949 31.9718C99.4949 34.3992 100.698 38.398 103.666 38.398C104.151 38.3979 104.63 38.2851 105.064 38.0685C105.498 37.8519 105.876 37.5374 106.168 37.1499Z" fill="#FBFBFB"/>
<path d="M89.7957 39.1373C85.8948 39.1373 83.8066 36.0952 83.8066 33.3445C83.8066 30.1301 86.4354 27.3847 90.1667 27.3847C90.9353 27.3676 91.6994 27.5052 92.4138 27.7892C93.1282 28.0732 93.7782 28.4978 94.3252 29.0379C94.8722 29.578 95.3052 30.2226 95.5982 30.9332C95.8913 31.6439 96.0386 32.4062 96.0313 33.1749C96.0313 36.0687 93.7999 39.1373 89.7984 39.1373M92.8671 37.1499C93.4554 36.3549 93.6012 35.3823 93.6012 34.4257C93.6012 32.266 92.5703 28.1426 89.528 28.1426C88.7166 28.1507 87.9343 28.4465 87.3205 28.9774C86.3639 29.8359 86.1916 30.9171 86.1916 31.9718C86.1916 34.3992 87.3921 38.398 90.3628 38.398C90.8484 38.3979 91.3273 38.2851 91.7618 38.0685C92.1964 37.852 92.5747 37.5375 92.8671 37.1499Z" fill="#FBFBFB"/>
<path d="M81.933 38.753L78.4058 39.5666C77.062 39.812 75.701 39.952 74.3353 39.9852C67.5247 39.9852 64.9329 34.9768 64.9329 31.0548C64.9329 26.269 68.6112 21.8276 74.9024 21.8276C76.1784 21.8344 77.4477 22.0126 78.6761 22.3576C79.8477 22.6542 80.9527 23.1694 81.933 23.8761L79.8845 25.8238L79.018 26.0225L79.6354 25.0341C78.798 24.2206 77.2663 22.7154 74.3565 22.7154C70.4583 22.7154 67.522 25.678 67.522 29.9949C67.522 34.6323 70.877 39.0048 76.254 39.0048C77.3316 39.0313 78.4019 38.8205 79.389 38.3873V34.4124L75.663 34.6085L77.6373 33.5485H82.8658L82.2272 34.1633C82.1608 34.2085 82.1044 34.2669 82.0616 34.3348C82.0187 34.4027 81.9903 34.4787 81.9781 34.5581C81.9542 34.7807 81.9304 35.4988 81.9304 35.7426L81.933 38.753Z" fill="#FBFBFB"/>
<path d="M126.369 38.0531C125.553 37.9789 125.383 37.8305 125.383 36.8659V22.8926C125.383 22.8396 125.383 22.7866 125.397 22.7336C125.497 21.8724 125.744 21.724 126.51 21.2788H122.98L121.125 22.1666H123.009V37.4012C123.009 37.8915 122.913 37.9683 122.344 38.7077H126.719L127.633 38.1777C127.215 38.1247 126.793 38.1008 126.374 38.0531" fill="#FBFBFB"/>
<path d="M136.408 38.2682C136.143 38.4166 135.878 38.5888 135.613 38.7107C134.86 39.0338 134.046 39.1919 133.227 39.1744C132.065 39.2268 130.919 38.8912 129.968 38.2205C128.229 36.9935 127.472 34.8868 127.472 33.0504C127.472 29.253 130.556 27.39 133.082 27.39C133.971 27.3789 134.846 27.6166 135.607 28.0764C136.463 28.6398 137.075 29.5059 137.319 30.5011L131.563 32.8304L129.676 32.9762C130.286 36.0872 132.395 37.8998 134.712 37.8998C135.962 37.8998 136.869 37.4599 137.701 37.0439L136.408 38.2682ZM134.105 30.9675C134.571 30.7952 134.815 30.6468 134.815 30.305C134.815 29.3272 133.712 28.185 132.39 28.185C131.407 28.185 129.57 28.9456 129.57 31.5902C129.57 32.0063 129.621 32.4488 129.647 32.8914L134.105 30.9675Z" fill="#FBFBFB"/>
<path d="M138.774 27.5566V29.1757H138.575V27.5566H138.043V27.3896H139.307V27.5566H138.774Z" fill="#FBFBFB"/>
<path d="M140.976 29.1757V27.5433H140.968L140.47 29.1757H140.316L139.813 27.5433H139.808V29.1757H139.63V27.3896H139.935L140.391 28.8312H140.396L140.844 27.3896H141.154V29.1757H140.976Z" fill="#FBFBFB"/>
<path d="M69.8355 17.0229H68.6085C68.5355 16.5363 68.4184 16.0573 68.2587 15.5919H66.4885C66.322 16.056 66.2012 16.5353 66.1281 17.0229H64.9727C64.9727 16.9257 65.2703 16.1087 65.8657 14.5717C66.4611 13.0347 66.7597 12.1893 66.7614 12.0356H68.2084C68.2084 12.1805 68.4787 13.0135 69.0193 14.5346C69.5599 16.0557 69.8302 16.8851 69.8302 17.0229M68.06 14.8605C67.8049 14.1592 67.5856 13.4455 67.4028 12.722H67.3577C67.1676 13.4458 66.9412 14.1595 66.6793 14.8605H68.06Z" fill="#FCFCFD"/>
<path d="M74.7779 17.0233H73.8318C73.8318 16.9191 73.4784 16.3661 72.7718 15.3644C72.0377 14.3044 71.6163 13.5889 71.5156 13.202H71.4547C71.5148 13.7051 71.5467 14.2112 71.5501 14.7178C71.5501 15.3485 71.5678 16.117 71.6031 17.0233H70.6597C70.6985 16.2336 70.718 15.3644 70.718 14.4157C70.718 13.467 70.6985 12.6721 70.6597 12.0308H71.7992C71.7992 12.165 72.1145 12.7056 72.7453 13.6525C73.4166 14.6542 73.8018 15.3344 73.9007 15.693H73.959C73.902 15.1844 73.8719 14.6731 73.8689 14.1613C73.8689 13.4706 73.8503 12.7639 73.8132 12.0414H74.7779C74.7408 12.6747 74.7222 13.4697 74.7222 14.4263C74.7222 15.383 74.7408 16.2548 74.7779 17.0339" fill="#FCFCFD"/>
<path d="M80.3271 14.357C80.3371 15.0547 80.0889 15.7314 79.6301 16.257C79.3868 16.531 79.0848 16.7464 78.7466 16.8873C78.4084 17.0281 78.0428 17.0908 77.677 17.0706C77.2972 17.0706 76.776 17.0547 76.1135 17.0229C76.1453 16.2517 76.1638 15.3826 76.1638 14.4153C76.1638 13.4481 76.1453 12.6928 76.1135 12.0303H76.7839C76.8926 12.0303 77.0489 12.0303 77.2742 12.0303L77.6982 12.0171C78.6204 12.0171 79.2891 12.2476 79.7043 12.7087C80.1159 13.1599 80.3388 13.7517 80.3271 14.3623M79.2803 14.5293C79.2946 14.0771 79.1417 13.6356 78.851 13.2891C78.6844 13.1125 78.4802 12.9756 78.2537 12.8885C78.0271 12.8014 77.7838 12.7662 77.5418 12.7856C77.3902 12.7881 77.2389 12.7996 77.0887 12.82C77.1152 13.3288 77.1284 13.8641 77.1284 14.41C77.1284 15.0195 77.1417 15.6264 77.1655 16.2252C77.3294 16.259 77.4964 16.2759 77.6637 16.2756C77.8934 16.2935 78.124 16.2565 78.3364 16.1675C78.5489 16.0786 78.7371 15.9403 78.8854 15.7642C79.1536 15.4054 79.2928 14.9665 79.2803 14.5187" fill="#FCFCFD"/>
<path d="M85.447 17.0231H84.318C84.1579 16.4408 83.9293 15.8795 83.637 15.351C83.5446 15.24 83.4266 15.1531 83.2932 15.0977C83.1598 15.0423 83.015 15.0201 82.8711 15.033H82.4445C82.4445 15.6902 82.4445 16.358 82.4789 17.0204H81.4189C81.4525 16.2484 81.4692 15.3792 81.4692 14.4129C81.4692 13.4836 81.4525 12.6886 81.4189 12.0279H82.0814H82.5637C82.8075 12.0279 83.0328 12.0146 83.2395 12.0146C84.4108 12.0146 84.9965 12.4166 84.9965 13.2204C84.9965 13.8537 84.6626 14.2989 83.9947 14.5454V14.6037C84.2904 14.7085 84.5337 14.9242 84.6732 15.2052C84.9827 15.7907 85.2484 16.3983 85.4682 17.0231M84.0318 13.4986C84.0318 12.9916 83.705 12.7381 83.0513 12.7381C82.8381 12.7361 82.6252 12.7539 82.4153 12.7911C82.4418 13.1859 82.4577 13.7027 82.4577 14.3387H82.8128C83.6273 14.3387 84.0336 14.056 84.0318 13.4907" fill="#FCFCFD"/>
<path d="M90.9432 14.4394C90.9681 15.1581 90.7092 15.8578 90.2224 16.3871C89.9986 16.6365 89.7237 16.8347 89.4164 16.9682C89.109 17.1017 88.7766 17.1675 88.4416 17.1609C88.1253 17.1681 87.811 17.1086 87.5192 16.9862C87.2275 16.8639 86.9647 16.6814 86.7482 16.4507C86.521 16.2099 86.3438 15.9264 86.2269 15.6166C86.11 15.3069 86.0557 14.977 86.0671 14.6461C86.0418 13.9265 86.3007 13.2259 86.7879 12.6957C87.0106 12.4478 87.2838 12.2504 87.5892 12.1169C87.8945 11.9834 88.225 11.9169 88.5582 11.9219C88.8742 11.9149 89.1882 11.9743 89.4799 12.0961C89.7716 12.218 90.0345 12.3997 90.2516 12.6295C90.4809 12.8704 90.6602 13.1544 90.7789 13.4651C90.8977 13.7758 90.9535 14.107 90.9432 14.4394ZM89.8832 14.5481C89.9045 14.0807 89.7599 13.6208 89.4751 13.2496C89.3562 13.0941 89.2029 12.9683 89.0273 12.8818C88.8517 12.7954 88.6585 12.7508 88.4628 12.7514C88.2755 12.7529 88.0912 12.7995 87.9257 12.8871C87.7601 12.9747 87.618 13.1009 87.5114 13.2549C87.2414 13.6216 87.1041 14.0692 87.1218 14.5242C87.1017 14.9911 87.2472 15.45 87.5326 15.8201C87.6504 15.9758 87.8026 16.1022 87.9772 16.1896C88.1519 16.2769 88.3444 16.3227 88.5396 16.3235C88.727 16.3222 88.9113 16.2758 89.0769 16.1881C89.2425 16.1005 89.3845 15.9742 89.491 15.8201C89.7623 15.4529 89.9006 15.0043 89.8832 14.5481Z" fill="#FCFCFD"/>
<path d="M93.1057 17.0233H92.0218C92.0536 16.2283 92.0721 15.3644 92.0721 14.4157C92.0721 13.467 92.0536 12.6906 92.0218 12.0308H93.1057C93.0703 12.6756 93.0535 13.4706 93.0553 14.4157C93.0571 15.3609 93.0739 16.2301 93.1057 17.0233Z" fill="#FCFCFD"/>
<path d="M98.6575 14.357C98.6676 15.0547 98.4193 15.7314 97.9605 16.257C97.7174 16.5311 97.4154 16.7466 97.0772 16.8875C96.739 17.0284 96.3733 17.091 96.0074 17.0706C95.6294 17.0706 95.1082 17.0547 94.4439 17.0229C94.4757 16.2517 94.4943 15.3826 94.4943 14.4153C94.4943 13.4481 94.4757 12.6928 94.4439 12.0303H95.1144C95.223 12.0303 95.3794 12.0303 95.6046 12.0303L96.0286 12.0171C96.9509 12.0171 97.6196 12.2476 98.0347 12.7087C98.4464 13.1599 98.6693 13.7517 98.6575 14.3623M97.6107 14.5293C97.6263 14.0769 97.4733 13.635 97.1814 13.2891C97.015 13.1122 96.8109 12.9751 96.5843 12.888C96.3577 12.8008 96.1143 12.7658 95.8723 12.7856C95.7216 12.7882 95.5711 12.7997 95.4218 12.82C95.4456 13.3288 95.4589 13.8641 95.4589 14.41C95.4589 15.0195 95.4589 15.6264 95.4986 16.2252C95.6616 16.259 95.8277 16.2759 95.9942 16.2756C96.2238 16.2937 96.4545 16.2568 96.667 16.1679C96.8795 16.0789 97.0677 15.9405 97.2159 15.7642C97.4852 15.4059 97.6245 14.9666 97.6107 14.5187" fill="#FCFCFD"/>
<path d="M106.025 17.0229H104.798C104.725 16.5365 104.609 16.0576 104.451 15.5919H102.68C102.512 16.0556 102.392 16.535 102.32 17.0229H101.167C101.167 16.9257 101.465 16.1087 102.06 14.5717C102.656 13.0347 102.954 12.1893 102.956 12.0356H104.403C104.403 12.1805 104.673 13.0135 105.214 14.5346C105.754 16.0557 106.025 16.8851 106.025 17.0229ZM104.254 14.8605C103.999 14.1595 103.781 13.4457 103.6 12.722H103.536C103.536 12.8227 103.311 13.5329 102.861 14.8605H104.254Z" fill="#FCFCFD"/>
<path d="M110.493 13.3424C110.51 13.6081 110.457 13.8736 110.337 14.1116C110.218 14.3496 110.037 14.5515 109.814 14.6966C109.311 14.9993 108.731 15.1503 108.145 15.1311C108.025 15.1311 107.938 15.1311 107.88 15.1311C107.88 15.6134 107.894 16.2468 107.922 17.0312H106.844C106.875 16.2945 106.894 15.4253 106.894 14.4236C106.894 13.5041 106.875 12.7117 106.844 12.0386H107.509C107.604 12.0386 107.774 12.0386 108.055 12.0386C108.335 12.0386 108.555 12.0254 108.752 12.0254C109.188 12.007 109.62 12.1196 109.992 12.3487C110.156 12.4563 110.289 12.6053 110.377 12.7808C110.465 12.9562 110.505 13.1518 110.493 13.3477M109.504 13.5597C109.504 13.0103 109.142 12.7365 108.418 12.7382C108.225 12.7388 108.032 12.7584 107.843 12.7965C107.869 13.2788 107.885 13.8247 107.885 14.4369C107.949 14.4369 108.023 14.4369 108.105 14.4369C109.038 14.4369 109.504 14.1401 109.504 13.5518" fill="#FCFCFD"/>
<path d="M115.088 13.3422C115.105 13.6078 115.051 13.8731 114.932 14.111C114.813 14.349 114.632 14.551 114.409 14.6964C113.906 14.9989 113.327 15.1498 112.74 15.131C112.621 15.131 112.533 15.131 112.475 15.131C112.475 15.6133 112.489 16.2466 112.517 17.031H111.441C111.473 16.2943 111.492 15.4251 111.492 14.4234C111.492 13.5039 111.473 12.7116 111.441 12.0385H112.107C112.202 12.0385 112.372 12.0385 112.65 12.0385C112.928 12.0385 113.151 12.0252 113.349 12.0252C113.785 12.0077 114.216 12.1202 114.587 12.3485C114.751 12.4561 114.884 12.6052 114.972 12.7806C115.06 12.9561 115.1 13.1517 115.088 13.3476M114.099 13.5595C114.099 13.0101 113.736 12.7363 113.01 12.7381C112.818 12.7388 112.626 12.7583 112.438 12.7964C112.464 13.2787 112.48 13.8245 112.48 14.4367C112.544 14.4367 112.618 14.4367 112.7 14.4367C113.633 14.4367 114.099 14.1399 114.099 13.5516" fill="#FCFCFD"/>
<path d="M122.601 14.4394C122.625 15.158 122.366 15.8572 121.88 16.3871C121.656 16.6372 121.38 16.8358 121.071 16.9693C120.763 17.1029 120.43 17.1682 120.094 17.1609C119.777 17.1686 119.463 17.1093 119.171 16.9869C118.879 16.8645 118.617 16.6818 118.4 16.4507C118.173 16.2102 117.995 15.9268 117.878 15.6169C117.761 15.3071 117.707 14.9771 117.719 14.6461C117.694 13.927 117.952 13.2268 118.437 12.6957C118.662 12.4465 118.937 12.2484 119.245 12.1149C119.553 11.9814 119.886 11.9156 120.221 11.9219C120.537 11.9149 120.851 11.9743 121.143 12.0961C121.434 12.218 121.697 12.3997 121.914 12.6295C122.142 12.8712 122.319 13.1556 122.436 13.4663C122.553 13.777 122.607 14.1077 122.595 14.4394M121.535 14.5481C121.556 14.0803 121.41 13.6204 121.125 13.2496C121.006 13.094 120.854 12.968 120.678 12.8816C120.503 12.7951 120.31 12.7506 120.115 12.7514C119.928 12.7527 119.743 12.7991 119.578 12.8868C119.412 12.9744 119.27 13.1007 119.164 13.2549C118.894 13.6216 118.756 14.0692 118.774 14.5242C118.753 14.9912 118.898 15.4506 119.185 15.8201C119.304 15.9772 119.458 16.1045 119.634 16.1919C119.811 16.2793 120.005 16.3244 120.202 16.3235C120.389 16.3223 120.573 16.2758 120.739 16.1881C120.904 16.1005 121.045 15.9742 121.151 15.8201C121.422 15.4549 121.561 15.008 121.543 14.5534" fill="#FCFCFD"/>
<path d="M127.792 17.0233H126.846C126.846 16.9191 126.493 16.3661 125.786 15.3644C125.049 14.3044 124.631 13.5836 124.53 13.202H124.466C124.527 13.7051 124.56 14.2111 124.564 14.7178C124.564 15.3485 124.58 16.117 124.617 17.0233H123.674C123.713 16.2336 123.732 15.3644 123.732 14.4157C123.732 13.467 123.713 12.6721 123.674 12.0308H124.811C124.811 12.1659 125.129 12.7065 125.76 13.6525C126.429 14.6542 126.814 15.3344 126.915 15.693H126.984C126.926 15.1844 126.895 14.6732 126.891 14.1613C126.891 13.4697 126.875 12.7595 126.838 12.0414H127.795C127.76 12.6747 127.742 13.4697 127.742 14.4263C127.742 15.383 127.76 16.2548 127.795 17.0339" fill="#FCFCFD"/>
</g>
<defs>
<clipPath id="clip0_24_871">
<rect width="208.843" height="59.6694" fill="white" transform="translate(0.311279 0.158691)"/>
</clipPath>
</defs>
</svg>
